<?xml version="1.0" encoding="UTF-8" standalone="no"?>
<!DOCTYPE svg PUBLIC "-//W3C//DTD SVG 1.1//EN" "http://www.w3.org/Graphics/SVG/1.1/DTD/svg11.dtd">
<svg width="100%" height="100%" viewBox="0 0 1000 1000" version="1.1" xmlns="http://www.w3.org/2000/svg" xmlns:xlink="http://www.w3.org/1999/xlink" xml:space="preserve" xmlns:serif="http://www.serif.com/" style="fill-rule:evenodd;clip-rule:evenodd;stroke-linejoin:round;stroke-miterlimit:2;">
    <g transform="matrix(1,0,0,1,-2421.8,-16960)">
        <g id="ath_final_wordmark_light" transform="matrix(0.260417,0,0,0.462963,2421.8,16960)">
            <rect x="0" y="0" width="3840" height="2160" style="fill:none;"/>
            <g id="Logomark" transform="matrix(1.25874,0,0,1.25874,-493.537,-850.308)">
                <g transform="matrix(1.18054e-16,-1.08448,2.05793,7.08818e-17,226.624,4299.46)">
                    <rect x="2353.03" y="1012.95" width="544.81" height="127.661"/>
                </g>
                <g transform="matrix(8.78563e-17,-0.807076,2.05793,7.08818e-17,-298.812,3646.72)">
                    <rect x="2353.03" y="1012.95" width="544.81" height="127.661"/>
                </g>
                <g transform="matrix(5.75469e-17,-0.528644,2.05793,7.08818e-17,-824.249,2991.56)">
                    <rect x="2353.03" y="1012.95" width="544.81" height="127.661"/>
                </g>
            </g>
        </g>
    </g>
</svg>
