<?xml version="1.0" encoding="UTF-8" standalone="no"?>
<!DOCTYPE svg PUBLIC "-//W3C//DTD SVG 1.1//EN" "http://www.w3.org/Graphics/SVG/1.1/DTD/svg11.dtd">
<svg width="100%" height="100%" viewBox="0 0 2778 2778" version="1.1" xmlns="http://www.w3.org/2000/svg" xmlns:xlink="http://www.w3.org/1999/xlink" xml:space="preserve" xmlns:serif="http://www.serif.com/" style="fill-rule:evenodd;clip-rule:evenodd;stroke-linejoin:round;stroke-miterlimit:2;">
    <g transform="matrix(2.77778,0,0,2.77778,0,-52918.5)">
        <g id="ath_final_wordmark_light" transform="matrix(0.260417,0,0,0.462963,0,19050.6)">
            <rect x="0" y="0" width="3840" height="2160" style="fill:none;"/>
            <g id="Logomark" transform="matrix(2.92328,0,0,2.92328,-3684.32,-2949.28)">
                <g transform="matrix(1.18054e-16,-1.08448,2.05793,7.08818e-17,226.624,4299.46)">
                    <rect x="2353.03" y="1012.95" width="544.81" height="127.661" style="fill:white;"/>
                </g>
                <g transform="matrix(8.78563e-17,-0.807076,2.05793,7.08818e-17,-298.812,3646.72)">
                    <rect x="2353.03" y="1012.95" width="544.81" height="127.661" style="fill:white;"/>
                </g>
                <g transform="matrix(5.75469e-17,-0.528644,2.05793,7.08818e-17,-824.249,2991.56)">
                    <rect x="2353.03" y="1012.95" width="544.81" height="127.661" style="fill:white;"/>
                </g>
                <g transform="matrix(-2.4111,-1.66092e-16,2.52024e-16,-1.15759,8247.31,2329.39)">
                    <rect x="2353.03" y="1012.95" width="544.81" height="127.661" style="fill:rgb(48,254,193);"/>
                </g>
            </g>
        </g>
    </g>
</svg>
