<svg width="250" height="160" viewBox="0 0 250 160" fill="none" xmlns="http://www.w3.org/2000/svg">
<g clip-path="url(#clip0_44_32)">
<path d="M96.4723 159.68H74.0147V145.71C71.2536 150.075 66.8357 153.393 61.1293 156.013C55.4228 158.458 49.3483 159.68 42.5374 159.68C33.5175 159.68 25.7863 157.759 19.3435 153.743C12.9008 149.552 8.11475 144.138 4.61726 137.153C1.30386 130.168 -0.16877 122.135 0.0153084 113.229C0.199387 104.148 2.04017 96.2902 5.53766 89.6543C9.03514 83.0185 14.0053 77.7797 20.2639 74.1125C26.7066 70.4453 34.0698 68.5244 42.5374 68.5244C49.3483 68.5244 55.6069 69.9214 61.3133 72.7155C67.2039 75.3349 71.2536 79.3513 74.0147 84.4155V68.5244H96.4723V159.68ZM47.6916 140.471C52.8458 140.471 57.2636 139.423 61.1293 137.153C64.9949 134.883 68.1242 131.914 70.1491 127.898C72.174 123.881 73.2784 119.341 73.2784 114.277C73.2784 109.038 72.174 104.498 70.1491 100.481C68.1242 96.4648 64.9949 93.4961 61.1293 91.4006C57.2636 89.1305 52.8458 88.0827 47.6916 88.0827C42.5374 88.0827 38.1195 89.1305 34.2539 91.4006C30.3882 93.6708 27.443 96.6394 25.4181 100.656C23.3932 104.672 22.4728 109.213 22.4728 114.277C22.4728 119.341 23.3932 123.881 25.4181 127.898C27.443 131.914 30.3882 134.883 34.2539 137.153C38.1195 139.423 42.5374 140.471 47.6916 140.471Z" fill="white"/>
<path d="M101.602 68.5835H158.657V87.2084H101.602V68.5835ZM141.357 159.68H118.903V45.5327H141.357V159.68Z" fill="white"/>
<path d="M186.328 159.68H163.877V22.4507H186.328V80.1829C189.272 75.5717 193.321 72.0672 198.473 69.4849C203.626 67.0871 209.515 65.7959 215.956 65.7959C227.733 65.7959 236.382 69.3004 241.903 76.125C247.24 83.134 250 92.3564 250 103.608V159.68H227.733V108.957C227.733 103.977 227.181 100.103 225.893 97.1521C224.605 94.2009 223.133 91.9875 221.108 90.3275C219.084 88.6675 217.06 87.5608 215.035 87.0074C212.827 86.4541 210.803 86.2696 208.779 86.2696C206.386 86.2696 203.81 86.6385 201.234 87.3763C198.473 88.1141 196.081 89.4052 193.873 91.0653C191.664 92.9098 189.824 95.3076 188.536 98.2587C187.064 101.21 186.328 104.899 186.328 109.51V159.68Z" fill="white"/>
</g>
<defs>
<clipPath id="clip0_44_32">
<rect width="250" height="159.77" fill="white"/>
</clipPath>
</defs>
</svg>
