<svg width="2778" height="1772" viewBox="0 0 2778 1772" fill="none" xmlns="http://www.w3.org/2000/svg">
<path d="M1072 1771H822.452V1616.06C791.77 1664.48 742.678 1701.28 679.268 1730.33C615.859 1757.44 548.358 1771 472.675 1771C372.447 1771 286.537 1749.7 214.945 1705.15C143.354 1658.67 90.1711 1598.63 51.307 1521.16C14.4885 1443.68 -1.87537 1354.59 0.170107 1255.82C2.21558 1155.1 22.6704 1067.95 61.5344 994.351C100.398 920.753 155.626 862.649 225.173 821.977C296.764 781.305 378.583 760 472.675 760C548.358 760 617.904 775.494 681.314 806.483C746.769 835.534 791.77 880.08 822.452 936.247V760H1072V1771ZM529.949 1557.95C587.222 1557.95 636.313 1546.33 679.268 1521.16C722.224 1495.98 756.997 1463.05 779.497 1418.51C801.997 1373.96 814.27 1323.6 814.27 1267.44C814.27 1209.33 801.997 1158.98 779.497 1114.43C756.997 1069.89 722.224 1036.96 679.268 1013.72C636.313 988.54 587.222 976.92 529.949 976.92C472.675 976.92 423.584 988.54 380.629 1013.72C337.674 1038.9 304.946 1071.82 282.446 1116.37C259.946 1160.91 249.718 1211.27 249.718 1267.44C249.718 1323.6 259.946 1373.96 282.446 1418.51C304.946 1463.05 337.674 1495.98 380.629 1521.16C423.584 1546.33 472.675 1557.95 529.949 1557.95Z" fill="white"/>
<path d="M1129 760.654H1763V967.223H1129V760.654ZM1570.75 1771H1321.25V505H1570.75V1771Z" fill="white"/>
<path d="M2070.47 1771H1821V249H2070.47V889.304C2103.19 838.161 2148.18 799.293 2205.44 770.653C2262.69 744.059 2328.13 729.739 2399.7 729.739C2530.57 729.739 2626.68 768.608 2688.03 844.298C2747.33 922.035 2778 1024.32 2778 1149.11V1771H2530.57V1208.43C2530.57 1153.2 2524.44 1110.24 2510.12 1077.51C2495.81 1044.78 2479.45 1020.23 2456.96 1001.82C2434.46 983.406 2411.97 971.132 2389.47 964.995C2364.94 958.858 2342.44 956.812 2319.95 956.812C2293.37 956.812 2264.74 960.903 2236.11 969.086C2205.44 977.269 2178.85 991.589 2154.31 1010C2129.78 1030.46 2109.33 1057.05 2095.01 1089.78C2078.65 1122.51 2070.47 1163.43 2070.47 1214.57V1771Z" fill="white"/>
<path d="M822 249L2070 249V0L822 0V249Z" fill="#00FFBA"/>
</svg>
