<svg width="2778" height="1772" viewBox="0 0 2778 1772" fill="none" xmlns="http://www.w3.org/2000/svg">
<g clip-path="url(#clip0_44_32)">
<path d="M822 249L2070 249V0L822 0V249Z" fill="#00FFBA"/>
<path d="M1571 1248L1571 505L1322 505L1322 1248L1571 1248Z" fill="#898989"/>
<path d="M1571 1248L1571 505L1322 505L1322 1248L1571 1248Z" fill="white"/>
<path d="M1071 1248L1071 760L822 760L822 1248L1071 1248Z" fill="#898989"/>
<path d="M1071 1248L1071 760L822 760L822 1248L1071 1248Z" fill="white"/>
<path d="M2069 1248L2069 249L1820 249L1820 1248L2069 1248Z" fill="#898989"/>
<path d="M2069 1248L2069 249L1820 249L1820 1248L2069 1248Z" fill="white"/>
</g>
<defs>
<clipPath id="clip0_44_32">
<rect width="2778" height="1772" fill="white"/>
</clipPath>
</defs>
</svg>
