<svg width="250" height="160" viewBox="0 0 250 160" fill="none" xmlns="http://www.w3.org/2000/svg">
<path d="M141.379 112.524L141.379 45.5327L118.97 45.5327L118.97 112.524L141.379 112.524Z" fill="#898989"/>
<path d="M141.379 112.524L141.379 45.5327L118.97 45.5327L118.97 112.524L141.379 112.524Z" fill="white"/>
<path d="M96.3823 112.524L96.3823 68.5244L73.9741 68.5244L73.9741 112.524L96.3823 112.524Z" fill="#898989"/>
<path d="M96.3823 112.524L96.3823 68.5244L73.9741 68.5244L73.9741 112.524L96.3823 112.524Z" fill="white"/>
<path d="M186.195 112.524L186.195 22.4507L163.787 22.4507L163.787 112.524L186.195 112.524Z" fill="#898989"/>
<path d="M186.195 112.524L186.195 22.4507L163.787 22.4507L163.787 112.524L186.195 112.524Z" fill="white"/>
</svg>
