<?xml version="1.0" encoding="UTF-8" standalone="no"?>
<!DOCTYPE svg PUBLIC "-//W3C//DTD SVG 1.1//EN" "http://www.w3.org/Graphics/SVG/1.1/DTD/svg11.dtd">
<svg width="100%" height="100%" viewBox="0 0 1000 1000" version="1.1" xmlns="http://www.w3.org/2000/svg" xmlns:xlink="http://www.w3.org/1999/xlink" xml:space="preserve" xmlns:serif="http://www.serif.com/" style="fill-rule:evenodd;clip-rule:evenodd;stroke-linejoin:round;stroke-miterlimit:2;">
    <g transform="matrix(1,0,0,1,-63.4977,-12363.3)">
        <g id="Artboard1" transform="matrix(0.260417,0,0,0.462963,63.4977,12363.3)">
            <rect x="0" y="0" width="3840" height="2160" style="fill:none;"/>
            <clipPath id="_clip1">
                <rect x="0" y="0" width="3840" height="2160"/>
            </clipPath>
            <g clip-path="url(#_clip1)">
                <g transform="matrix(6.77059,0,0,3.80846,-4424.93,-1380.16)">
                    <g transform="matrix(614.214,0,0,614.214,477.583,929.552)">
                        <rect x="0.42" y="-0.476" width="0.11" height="0.476" style="fill-rule:nonzero;"/>
                    </g>
                    <g transform="matrix(614.214,0,0,614.214,869.264,929.552)">
                        <rect x="0.073" y="-0.65" width="0.11" height="0.65" style="fill-rule:nonzero;"/>
                    </g>
                    <g transform="matrix(614.214,0,0,614.214,1049.51,929.552)">
                        <rect x="0.069" y="-0.825" width="0.11" height="0.825" style="fill-rule:nonzero;"/>
                    </g>
                </g>
                <g transform="matrix(5.27013,0,0,1.80821,-11845.9,-1831.62)">
                    <rect x="2353.03" y="1012.95" width="544.81" height="127.661" style="fill:rgb(48,254,193);"/>
                </g>
            </g>
        </g>
    </g>
</svg>
