<svg version="1" xmlns="http://www.w3.org/2000/svg" width="668" height="668" viewBox="0 0 501.000000 501.000000"><path d="M68.9 21.9c-.1.3-.2 22.8-.3 49.8-.1 43.3.1 49.3 1.4 49.4.8 0 38.3.1 83.3.1 44.9.1 81.6.3 81.4.4-.2.2-2.5.6-5.3.9-36.6 4.4-67.8 17.6-96.9 40.8-12.2 9.8-28.6 28.6-37.3 43-11.2 18.1-21.1 43.9-23.7 61.2-.3 2.2-1 7.1-1.6 11-1.7 11.5-1.4 38.7.6 48.5.2 1.3.7 4.2 1.1 6.5 1.7 12.1 8.9 33.5 16.1 47.6 4 8.1 14.2 24.1 18.8 29.8 21.7 26.7 49.1 46.3 80.4 57.5 5.6 2.1 11 3.9 11.9 4.1.9.1 3.7.8 6.2 1.5 26.5 7.1 63 7.1 91.5-.1 80.8-20.4 136.3-91.7 135.8-174.4 0-9-.8-19.9-1.7-24.4-.3-1.2-.7-4.2-1-6.5-.7-5.4-5.8-24-8.9-32.6-8-21.6-22.3-43.6-39.6-60.8-11.2-11.2-19.3-17.9-31.3-25.5-7.4-4.7-27-14.7-28.8-14.7-.6 0-1.8-.4-2.8-1-6-3.3-34.6-10.5-44.5-11.2-2-.2-3.7-.6-3.7-.9 0-.3 36.4-.6 81-.5 53.2.1 81.1-.2 81.3-.9.2-.6.3-23.1.3-50l-.1-49-181.7-.1c-100-.1-181.9.1-181.9.5zm172.8 99.7c-.3.3-1.2.4-1.9.1-.8-.3-.5-.6.6-.6 1.1-.1 1.7.2 1.3.5zm26.1.1c-1 .2-2.6.2-3.5 0-1-.3-.2-.5 1.7-.5s2.7.2 1.8.5zm.7 81.8c26.1 5.5 44.9 17.7 58.7 37.9 7.9 11.5 14.8 29.7 16.5 43.8.9 7.1.9 24 0 30.8-3 21.9-13 42.6-27.7 57-13 12.8-25.3 19.2-47.5 24.7-5 1.2-28.5 1.1-35.5-.2-40.4-7.3-69.1-37.8-75.3-80.1-1.3-8.8-1.5-26.6-.3-33.4 4.2-23.9 12.6-40.9 27.9-56.2 17.5-17.5 40.1-26 67.2-25.3 7.2.2 14.4.6 16 1z"/></svg>