<?xml version="1.0" standalone="no"?>
<!DOCTYPE svg PUBLIC "-//W3C//DTD SVG 20010904//EN"
 "http://www.w3.org/TR/2001/REC-SVG-20010904/DTD/svg10.dtd">
<svg version="1.0" xmlns="http://www.w3.org/2000/svg"
 width="339.000000pt" height="339.000000pt" viewBox="0 0 339.000000 339.000000"
 preserveAspectRatio="xMidYMid meet">
<metadata>
Created by potrace 1.11, written by Peter Selinger 2001-2013
</metadata>
<g transform="translate(0.000000,339.000000) scale(0.100000,-0.100000)"
fill="#000000" stroke="none">
<path d="M264 3105 c-2 -6 -3 -134 -2 -285 l3 -275 1142 0 1141 0 0 -930 c0
-694 -3 -934 -11 -944 -9 -12 -9 -13 1 -7 17 10 17 -274 0 -293 -11 -11 -10
-12 0 -6 11 6 13 -5 11 -51 -3 -54 -1 -59 18 -59 12 0 24 -3 28 -7 4 -4 17 -3
29 1 11 5 30 7 41 5 48 -9 75 -11 79 -6 9 8 106 9 106 1 0 -4 12 -6 28 -4 15
2 27 4 27 5 0 6 58 4 61 -2 3 -5 10 -5 17 -1 16 10 107 11 107 1 0 -4 9 -3 19
4 17 10 19 23 17 127 -1 69 2 122 8 130 7 9 7 13 1 9 -13 -8 -13 331 0 352 5
9 4 11 -3 6 -18 -11 -14 5 6 28 10 13 11 16 2 9 -13 -10 -15 59 -14 606 0 339
4 623 9 630 5 10 4 12 -3 7 -18 -11 -14 5 6 28 10 13 11 16 2 9 -13 -10 -15
41 -15 449 0 253 -2 463 -5 467 -8 12 -2852 9 -2856 -4z"/>
<path d="M2515 2250 c-3 -5 -1 -10 4 -10 6 0 11 5 11 10 0 6 -2 10 -4 10 -3 0
-8 -4 -11 -10z"/>
<path d="M3146 2228 c3 -5 10 -6 15 -3 13 9 11 12 -6 12 -8 0 -12 -4 -9 -9z"/>
<path d="M2515 2170 c-3 -5 -1 -10 4 -10 6 0 11 5 11 10 0 6 -2 10 -4 10 -3 0
-8 -4 -11 -10z"/>
<path d="M3146 2068 c3 -5 10 -6 15 -3 13 9 11 12 -6 12 -8 0 -12 -4 -9 -9z"/>
<path d="M2515 2010 c-3 -5 -1 -10 4 -10 6 0 11 5 11 10 0 6 -2 10 -4 10 -3 0
-8 -4 -11 -10z"/>
<path d="M3146 1992 c-3 -5 1 -9 9 -9 8 0 12 4 9 9 -3 4 -7 8 -9 8 -2 0 -6 -4
-9 -8z"/>
<path d="M2515 1850 c-3 -5 -1 -10 4 -10 6 0 11 5 11 10 0 6 -2 10 -4 10 -3 0
-8 -4 -11 -10z"/>
<path d="M3146 1828 c3 -5 10 -6 15 -3 13 9 11 12 -6 12 -8 0 -12 -4 -9 -9z"/>
<path d="M3146 1752 c-3 -5 1 -9 9 -9 8 0 12 4 9 9 -3 4 -7 8 -9 8 -2 0 -6 -4
-9 -8z"/>
<path d="M1466 1688 c5 -8 2 -9 -11 -4 -10 3 -26 4 -35 1 -15 -5 -17 -17 -15
-75 1 -46 -2 -70 -9 -70 -7 0 -7 -3 -1 -8 13 -9 14 -75 0 -84 -7 -5 -7 -8 0
-8 7 0 11 -26 10 -65 0 -53 -3 -64 -15 -60 -10 3 -9 0 3 -9 12 -9 15 -16 7
-21 -8 -5 -8 -10 0 -20 8 -10 7 -14 -2 -18 -10 -4 -10 -6 0 -6 6 -1 12 -6 12
-12 0 -5 -5 -7 -11 -3 -7 4 -7 -1 1 -16 10 -18 10 -21 -2 -14 -11 6 -11 5 0
-8 10 -13 10 -17 0 -21 -10 -4 -10 -6 1 -6 11 -1 11 -4 0 -18 -8 -9 -9 -14 -4
-11 7 4 10 -23 10 -78 0 -49 -4 -84 -10 -84 -6 0 -6 -3 0 -8 14 -9 14 -232 0
-232 -5 0 -4 -4 4 -9 12 -7 12 -13 3 -24 -7 -7 -9 -17 -5 -21 12 -11 10 -106
-2 -106 -6 0 -6 -3 1 -8 14 -9 14 -43 1 -35 -6 4 -7 1 -2 -8 14 -22 15 -60 2
-52 -7 4 -6 0 2 -10 10 -13 10 -17 1 -17 -10 0 -10 -3 0 -15 10 -12 10 -15 -1
-15 -10 0 -11 -2 -2 -8 13 -8 13 -29 0 -50 -5 -6 -4 -12 1 -12 4 0 8 -18 7
-40 -1 -38 14 -58 35 -45 5 3 11 1 15 -5 4 -6 12 -7 18 -3 17 10 117 10 117
-1 0 -5 7 -3 15 4 10 8 15 9 15 1 0 -7 8 -8 25 -1 15 6 25 6 25 0 0 -5 12 -5
28 -1 41 11 57 7 54 -12 -2 -9 2 -17 8 -17 6 0 9 4 5 9 -3 5 0 13 7 17 17 11
58 11 58 1 0 -4 9 -3 20 3 14 8 20 8 20 0 0 -8 6 -8 20 0 11 6 20 7 20 2 0 -5
7 -9 15 -9 8 0 12 4 9 9 -3 5 6 7 20 4 23 -4 26 -1 27 27 0 40 0 1296 0 1355
-1 35 -5 44 -23 51 -14 5 -28 5 -35 -1 -7 -6 -14 -5 -18 2 -3 6 -12 7 -18 3
-18 -11 -131 -10 -139 2 -5 6 -11 7 -15 0 -5 -5 -15 -10 -23 -10 -8 0 -18 5
-22 10 -5 6 -8 6 -8 -1 0 -6 -7 -11 -15 -11 -8 0 -15 5 -15 11 0 6 -4 5 -9 -2
-4 -8 -12 -14 -16 -14 -4 0 -12 6 -16 14 -5 7 -9 9 -9 3 0 -5 -11 -10 -25 -10
-14 0 -25 3 -25 7 0 4 -10 4 -22 -1 -13 -5 -33 -5 -46 0 -17 6 -21 5 -16 -3z"/>
<path d="M2515 1690 c-3 -5 -1 -10 4 -10 6 0 11 5 11 10 0 6 -2 10 -4 10 -3 0
-8 -4 -11 -10z"/>
<path d="M3146 1588 c3 -5 10 -6 15 -3 13 9 11 12 -6 12 -8 0 -12 -4 -9 -9z"/>
<path d="M2515 1530 c-3 -5 -1 -10 4 -10 6 0 11 5 11 10 0 6 -2 10 -4 10 -3 0
-8 -4 -11 -10z"/>
<path d="M1377 1505 c-4 -8 -3 -16 1 -19 4 -3 9 4 9 15 2 23 -3 25 -10 4z"/>
<path d="M2030 1506 c0 -2 8 -10 18 -17 15 -13 16 -12 3 4 -13 16 -21 21 -21
13z"/>
<path d="M3146 1468 c3 -5 10 -6 15 -3 13 9 11 12 -6 12 -8 0 -12 -4 -9 -9z"/>
<path d="M3146 1428 c3 -5 10 -6 15 -3 13 9 11 12 -6 12 -8 0 -12 -4 -9 -9z"/>
<path d="M2515 1370 c-3 -5 -1 -10 4 -10 6 0 11 5 11 10 0 6 -2 10 -4 10 -3 0
-8 -4 -11 -10z"/>
<path d="M3146 1352 c-3 -5 1 -9 9 -9 8 0 12 4 9 9 -3 4 -7 8 -9 8 -2 0 -6 -4
-9 -8z"/>
<path d="M3199 1298 c-5 -18 -6 -38 -1 -34 7 8 12 36 6 36 -2 0 -4 -1 -5 -2z"/>
<path d="M2515 1210 c-3 -5 -1 -10 4 -10 6 0 11 5 11 10 0 6 -2 10 -4 10 -3 0
-8 -4 -11 -10z"/>
<path d="M3146 1188 c3 -5 10 -6 15 -3 13 9 11 12 -6 12 -8 0 -12 -4 -9 -9z"/>
<path d="M2014 1126 c1 -8 5 -18 8 -22 4 -3 5 1 4 10 -1 8 -5 18 -8 22 -4 3
-5 -1 -4 -10z"/>
<path d="M3146 1112 c-3 -5 1 -9 9 -9 8 0 12 4 9 9 -3 4 -7 8 -9 8 -2 0 -6 -4
-9 -8z"/>
<path d="M2515 1050 c-3 -5 -1 -10 4 -10 6 0 11 5 11 10 0 6 -2 10 -4 10 -3 0
-8 -4 -11 -10z"/>
<path d="M3199 1058 c-5 -18 -6 -38 -1 -34 7 8 12 36 6 36 -2 0 -4 -1 -5 -2z"/>
<path d="M3146 948 c3 -5 10 -6 15 -3 13 9 11 12 -6 12 -8 0 -12 -4 -9 -9z"/>
<path d="M2515 890 c-3 -5 -1 -10 4 -10 6 0 11 5 11 10 0 6 -2 10 -4 10 -3 0
-8 -4 -11 -10z"/>
<path d="M1995 870 c3 -5 8 -10 11 -10 2 0 4 5 4 10 0 6 -5 10 -11 10 -5 0 -7
-4 -4 -10z"/>
<path d="M427 849 c7 -7 15 -10 18 -7 3 3 -2 9 -12 12 -14 6 -15 5 -6 -5z"/>
<path d="M632 841 c2 -9 -7 -14 -24 -15 -16 -1 -28 2 -28 7 0 4 -8 4 -17 0
-21 -10 -65 -9 -82 1 -6 4 -11 4 -11 -1 0 -4 -19 -7 -42 -5 -52 3 -56 3 -88
-1 -14 -2 -31 1 -37 6 -9 6 -13 6 -13 -1 0 -6 -7 -9 -15 -6 -17 7 -18 4 -17
-334 1 -122 3 -226 6 -231 3 -5 34 -9 69 -8 34 0 68 -2 74 -6 6 -4 14 -3 17 1
6 10 48 8 65 -2 5 -4 12 -3 14 1 3 5 25 8 49 7 31 0 42 -4 40 -14 -2 -10 3 -8
17 4 14 13 21 15 21 6 0 -10 3 -10 15 0 11 9 15 9 15 1 0 -7 5 -9 11 -6 16 11
59 13 59 4 0 -5 11 -4 24 1 14 5 37 5 53 1 l29 -9 -1 79 c-1 50 3 79 9 79 7 0
8 3 1 8 -13 9 -14 95 0 104 7 5 7 8 0 8 -12 0 -14 168 -2 187 4 6 3 15 -3 18
-8 5 -8 11 0 20 7 8 7 15 1 19 -11 7 -9 25 3 45 6 10 5 12 -2 7 -7 -4 -12 -2
-12 4 0 6 -4 9 -9 5 -5 -3 -12 -1 -16 5 -4 6 -13 7 -23 2 -20 -10 -84 -8 -100
2 -7 4 -12 2 -12 -5 0 -7 -8 -5 -21 7 -13 12 -19 14 -17 5z"/>
<path d="M1375 770 c3 -5 8 -10 11 -10 2 0 4 5 4 10 0 6 -5 10 -11 10 -5 0 -7
-4 -4 -10z"/>
<path d="M3146 708 c3 -5 10 -6 15 -3 13 9 11 12 -6 12 -8 0 -12 -4 -9 -9z"/>
<path d="M1375 610 c3 -5 8 -10 11 -10 2 0 4 5 4 10 0 6 -5 10 -11 10 -5 0 -7
-4 -4 -10z"/>
<path d="M2506 592 c-2 -4 4 -8 14 -8 10 0 16 4 14 8 -3 4 -9 8 -14 8 -5 0
-11 -4 -14 -8z"/>
<path d="M2014 568 c-4 -7 -4 -10 1 -6 4 4 15 2 24 -5 14 -11 14 -10 2 6 -16
20 -18 21 -27 5z"/>
<path d="M230 530 c0 -5 5 -10 11 -10 5 0 7 5 4 10 -3 6 -8 10 -11 10 -2 0 -4
-4 -4 -10z"/>
<path d="M2010 510 c0 -5 5 -10 11 -10 5 0 7 5 4 10 -3 6 -8 10 -11 10 -2 0
-4 -4 -4 -10z"/>
<path d="M2513 475 c0 -8 4 -12 9 -9 5 3 6 10 3 15 -9 13 -12 11 -12 -6z"/>
<path d="M2926 232 c-3 -5 1 -9 9 -9 8 0 12 4 9 9 -3 4 -7 8 -9 8 -2 0 -6 -4
-9 -8z"/>
<path d="M506 192 c-3 -5 1 -9 9 -9 8 0 12 4 9 9 -3 4 -7 8 -9 8 -2 0 -6 -4
-9 -8z"/>
</g>
</svg>
